<svg width="36" height="37" viewBox="0 0 36 37" fill="none" xmlns="http://www.w3.org/2000/svg">
<path opacity="0.638811" fill-rule="evenodd" clip-rule="evenodd" d="M18 36.1351C27.9411 36.1351 36 28.0763 36 18.1351C36 8.19401 27.9411 0.135132 18 0.135132C8.05887 0.135132 0 8.19401 0 18.1351C0 28.0763 8.05887 36.1351 18 36.1351Z" fill="#E6F1FB"/>
<path fill-rule="evenodd" clip-rule="evenodd" d="M18.4768 19.3343L17.2935 18.4916C16.8033 18.1434 16.6932 17.4688 17.0453 16.9852C17.3974 16.5004 18.0795 16.3903 18.5685 16.7397L19.7518 17.5824C20.242 17.9306 20.3532 18.6053 19.9999 19.0889C19.6479 19.5725 18.9658 19.6825 18.4768 19.3343ZM22.941 19.8523L23.5327 20.2742L26.8174 15.7621C27.1303 15.3317 27.0325 14.7308 26.5961 14.4213L25.2196 13.4396C24.8969 13.211 24.4507 13.1687 24.1292 13.3984C23.4813 13.8615 22.5816 13.8869 21.8983 13.3997C21.2149 12.9124 20.9533 12.06 21.1917 11.3068C21.3103 10.932 21.1281 10.527 20.8066 10.2973L19.429 9.31675C18.9938 9.00603 18.3862 9.10396 18.072 9.53438L14.7886 14.0465L15.3802 14.4684C15.8692 14.8166 15.9805 15.4913 15.6284 15.9749C15.2763 16.4585 14.5942 16.5685 14.104 16.2203L13.5124 15.7984L10.0834 20.5076C9.77047 20.9392 9.86827 21.5389 10.3047 21.8496L11.6811 22.8301C12.0039 23.0598 12.4501 23.1021 12.7716 22.8724C13.4194 22.4094 14.3192 22.384 15.0025 22.8712C15.6858 23.3584 15.9475 24.2096 15.7091 24.964C15.5905 25.3376 15.7726 25.7439 16.0941 25.9736L17.4718 26.9541C17.907 27.2636 18.5146 27.1669 18.8287 26.7353L22.2564 22.0261L21.6648 21.6041C21.1758 21.2559 21.0646 20.5813 21.4166 20.0977C21.7687 19.6141 22.4508 19.5041 22.941 19.8523Z" fill="#27557E"/>
</svg>
