<svg width="24" height="25" viewBox="0 0 24 25" fill="none" xmlns="http://www.w3.org/2000/svg">
<g clip-path="url(#clip0_645_3537)">
<path fill-rule="evenodd" clip-rule="evenodd" d="M2.89062 10.9997L12.86 1.03175C13.568 0.321752 14.7219 0.323751 15.4299 1.03175L23.4674 9.07171C23.9874 9.59371 24.1254 10.3537 23.8814 10.9997H2.89062Z" fill="#FFB60E"/>
<path fill-rule="evenodd" clip-rule="evenodd" d="M7.13867 10.999L16.2661 1.87305L18.386 3.99304L11.3784 10.999H7.13867Z" fill="#4F4F4F"/>
<path fill-rule="evenodd" clip-rule="evenodd" d="M0 11.3141V22.682C0 23.684 0.813952 24.5 1.81589 24.5H22.1847C23.1866 24.5 24.0006 23.684 24.0006 22.682V11.3141C24.0006 10.3121 23.1866 9.49609 22.1847 9.49609H1.81589C0.813952 9.49609 0 10.3121 0 11.3141Z" fill="#0C93C7"/>
<path fill-rule="evenodd" clip-rule="evenodd" d="M20.2518 10.9961C21.4937 10.9961 22.5017 12.0041 22.5017 13.2461C22.5017 14.4881 21.4937 15.4961 20.2518 15.4961C19.0099 15.4961 18.002 14.4881 18.002 13.2461C18.002 12.0041 19.0099 10.9961 20.2518 10.9961Z" fill="white"/>
<path fill-rule="evenodd" clip-rule="evenodd" d="M2.92489 12.6804C3.03688 12.6804 3.14488 12.6604 3.24887 12.6224C3.35287 12.5804 3.45286 12.5164 3.54685 12.4264L3.67085 12.5784C3.57685 12.6704 3.46286 12.7404 3.32687 12.7944C3.19287 12.8464 3.04888 12.8724 2.89889 12.8724C2.7429 12.8724 2.60091 12.8524 2.47692 12.8104C2.35092 12.7704 2.24293 12.7104 2.15494 12.6304C2.06694 12.5504 1.99695 12.4504 1.94895 12.3344C1.90095 12.2164 1.87695 12.0804 1.87695 11.9264C1.87695 11.7744 1.90095 11.6384 1.94895 11.5204C1.99695 11.4044 2.06294 11.3064 2.14894 11.2264C2.23693 11.1464 2.34093 11.0844 2.46492 11.0444C2.58891 11.0024 2.7249 10.9824 2.87289 10.9824C3.02488 10.9824 3.16688 11.0084 3.30287 11.0624C3.43686 11.1144 3.55085 11.1864 3.64685 11.2764L3.52286 11.4304C3.42686 11.3384 3.32687 11.2744 3.22487 11.2344C3.11888 11.1944 3.01089 11.1744 2.89889 11.1744C2.8089 11.1744 2.7249 11.1884 2.64691 11.2184C2.56891 11.2484 2.50092 11.2944 2.44492 11.3544C2.38892 11.4164 2.34493 11.4944 2.31293 11.5884C2.27893 11.6844 2.26293 11.7964 2.26293 11.9264C2.26293 12.0584 2.27893 12.1704 2.31293 12.2664C2.34493 12.3604 2.38892 12.4384 2.44892 12.5004C2.50892 12.5604 2.57691 12.6064 2.65891 12.6364C2.7389 12.6664 2.8269 12.6804 2.92489 12.6804Z" fill="white"/>
<path fill-rule="evenodd" clip-rule="evenodd" d="M4.35606 12.1972H5.12801L4.75403 11.2512H4.73004L4.35606 12.1972ZM5.03002 11.0352L5.73998 12.8231H5.38L5.21601 12.3892H4.26806L4.10407 12.8231H3.74609L4.45605 11.0352H5.03002Z" fill="white"/>
<path fill-rule="evenodd" clip-rule="evenodd" d="M6.78195 11.0352C6.89195 11.0352 6.98794 11.0472 7.07594 11.0772C7.16193 11.1052 7.23393 11.1452 7.29392 11.1992C7.35392 11.2532 7.39992 11.3192 7.43191 11.3972C7.46391 11.4732 7.47991 11.5632 7.47991 11.6612C7.47991 11.7972 7.44991 11.9112 7.39192 12.0052C7.33392 12.0992 7.24993 12.1712 7.14193 12.2212L7.49991 12.8211H7.14193L6.82195 12.2872H6.78195H6.31598V12.8211H6V11.0352H6.78195ZM6.31598 11.2272V12.0932H6.78195C6.89795 12.0932 6.98594 12.0592 7.04794 11.9892C7.10993 11.9172 7.14193 11.8092 7.14193 11.6592C7.14193 11.5112 7.10993 11.4032 7.04794 11.3332C6.98594 11.2612 6.89795 11.2272 6.78195 11.2272H6.31598Z" fill="white"/>
<path fill-rule="evenodd" clip-rule="evenodd" d="M8.75359 11.0352C8.90358 11.0352 9.03957 11.0532 9.15957 11.0932C9.28156 11.1312 9.38755 11.1872 9.47355 11.2612C9.56154 11.3352 9.62954 11.4292 9.67754 11.5412C9.72553 11.6532 9.74953 11.7812 9.74953 11.9272C9.74953 12.0752 9.72553 12.2032 9.67754 12.3152C9.62954 12.4272 9.56154 12.5192 9.47355 12.5951C9.38755 12.6711 9.28156 12.7251 9.15957 12.7651C9.03957 12.8031 8.90358 12.8211 8.75359 12.8211H7.93164V11.0352H8.75359ZM8.29362 11.2272V12.6311H8.75359C8.83759 12.6311 8.91758 12.6172 8.99158 12.5912C9.06557 12.5652 9.12957 12.5231 9.18357 12.4651C9.23956 12.4091 9.28156 12.3372 9.31556 12.2472C9.34756 12.1592 9.36356 12.0532 9.36356 11.9272C9.36356 11.8032 9.34756 11.6972 9.31556 11.6092C9.28156 11.5212 9.23956 11.4472 9.18357 11.3892C9.12957 11.3332 9.06557 11.2912 8.99158 11.2652C8.91758 11.2392 8.83759 11.2272 8.75359 11.2272H8.29362Z" fill="white"/>
<path fill-rule="evenodd" clip-rule="evenodd" d="M17.2518 10.9961C18.4937 10.9961 19.5037 12.0041 19.5037 13.2481C19.5037 14.4901 18.4937 15.4981 17.2518 15.4981C16.0099 15.4981 15.002 14.4901 15.002 13.2481C15.002 12.0041 16.0099 10.9961 17.2518 10.9961Z" fill="white"/>
<path fill-rule="evenodd" clip-rule="evenodd" d="M1.5 21.199V20.671C1.5 20.507 1.61799 20.373 1.76398 20.373H1.98397C2.12996 20.373 2.24996 20.507 2.24996 20.671V21.199C2.24996 21.363 2.12996 21.499 1.98397 21.499H1.76398C1.61799 21.499 1.5 21.363 1.5 21.199ZM1.99997 21.087V20.783C1.99997 20.713 1.94797 20.655 1.88398 20.655H1.86398C1.79998 20.655 1.74999 20.713 1.74999 20.783V21.087C1.74999 21.159 1.79998 21.215 1.86398 21.215H1.88398C1.94797 21.215 1.99997 21.159 1.99997 21.087Z" fill="white"/>
<path fill-rule="evenodd" clip-rule="evenodd" d="M2.625 21.199V20.671C2.625 20.507 2.74299 20.373 2.89098 20.373H3.10897C3.25496 20.373 3.37296 20.507 3.37296 20.671V21.199C3.37296 21.363 3.25496 21.499 3.10897 21.499H2.89098C2.74299 21.499 2.625 21.363 2.625 21.199ZM3.12497 21.087V20.783C3.12497 20.713 3.07297 20.655 3.00698 20.655H2.98898C2.92498 20.655 2.87499 20.713 2.87499 20.783V21.087C2.87499 21.159 2.92498 21.215 2.98898 21.215H3.00698C3.07297 21.215 3.12497 21.159 3.12497 21.087Z" fill="white"/>
<path fill-rule="evenodd" clip-rule="evenodd" d="M3.75 21.199V20.671C3.75 20.507 3.86799 20.373 4.01798 20.373H4.23397C4.37996 20.373 4.49996 20.507 4.49996 20.671V21.199C4.49996 21.363 4.37996 21.499 4.23397 21.499H4.01798C3.86799 21.499 3.75 21.363 3.75 21.199ZM4.24997 21.087V20.783C4.24997 20.713 4.19797 20.655 4.13398 20.655H4.11598C4.05198 20.655 3.99999 20.713 3.99999 20.783V21.087C3.99999 21.159 4.05198 21.215 4.11598 21.215H4.13398C4.19797 21.215 4.24997 21.159 4.24997 21.087Z" fill="white"/>
<path fill-rule="evenodd" clip-rule="evenodd" d="M4.875 21.199V20.671C4.875 20.507 4.99299 20.373 5.14098 20.373H5.35697C5.50496 20.373 5.62296 20.507 5.62296 20.671V21.199C5.62296 21.363 5.50496 21.499 5.35697 21.499H5.14098C4.99299 21.499 4.875 21.363 4.875 21.199ZM5.37297 21.087V20.783C5.37297 20.713 5.32297 20.655 5.25698 20.655H5.23898C5.17498 20.655 5.12498 20.713 5.12498 20.783V21.087C5.12498 21.159 5.17498 21.215 5.23898 21.215H5.25698C5.32297 21.215 5.37297 21.159 5.37297 21.087Z" fill="white"/>
<path fill-rule="evenodd" clip-rule="evenodd" d="M7.125 21.199V20.671C7.125 20.507 7.24299 20.373 7.38898 20.373H7.60697C7.75496 20.373 7.87496 20.507 7.87496 20.671V21.199C7.87496 21.363 7.75496 21.499 7.60697 21.499H7.38898C7.24299 21.499 7.125 21.363 7.125 21.199ZM7.62497 21.087V20.783C7.62497 20.713 7.57297 20.655 7.50698 20.655H7.48898C7.42498 20.655 7.37298 20.713 7.37298 20.783V21.087C7.37298 21.159 7.42498 21.215 7.48898 21.215H7.50698C7.57297 21.215 7.62497 21.159 7.62497 21.087Z" fill="white"/>
<path fill-rule="evenodd" clip-rule="evenodd" d="M8.25 21.199V20.671C8.25 20.507 8.36999 20.373 8.51798 20.373H8.73397C8.87996 20.373 8.99996 20.507 8.99996 20.671V21.199C8.99996 21.363 8.87996 21.499 8.73397 21.499H8.51798C8.36999 21.499 8.25 21.363 8.25 21.199ZM8.75197 21.087V20.783C8.75197 20.713 8.69797 20.655 8.63398 20.655H8.61598C8.55198 20.655 8.50198 20.713 8.50198 20.783V21.087C8.50198 21.159 8.55198 21.215 8.61598 21.215H8.63398C8.69797 21.215 8.75197 21.159 8.75197 21.087Z" fill="white"/>
<path fill-rule="evenodd" clip-rule="evenodd" d="M9.375 21.199V20.671C9.375 20.507 9.49299 20.373 9.64098 20.373H9.85697C10.005 20.373 10.125 20.507 10.125 20.671V21.199C10.125 21.363 10.005 21.499 9.85697 21.499H9.64098C9.49299 21.499 9.375 21.363 9.375 21.199ZM9.87497 21.087V20.783C9.87497 20.713 9.82297 20.655 9.75898 20.655H9.73898C9.67498 20.655 9.62499 20.713 9.62499 20.783V21.087C9.62499 21.159 9.67498 21.215 9.73898 21.215H9.75898C9.82297 21.215 9.87497 21.159 9.87497 21.087Z" fill="white"/>
<path fill-rule="evenodd" clip-rule="evenodd" d="M10.502 21.199V20.671C10.502 20.507 10.6199 20.373 10.7679 20.373H10.9839C11.1299 20.373 11.2499 20.507 11.2499 20.671V21.199C11.2499 21.363 11.1299 21.499 10.9839 21.499H10.7679C10.6199 21.499 10.502 21.363 10.502 21.199ZM10.9999 21.087V20.783C10.9999 20.713 10.9479 20.655 10.8839 20.655H10.8659C10.8019 20.655 10.7519 20.713 10.7519 20.783V21.087C10.7519 21.159 10.8019 21.215 10.8659 21.215H10.8839C10.9479 21.215 10.9999 21.159 10.9999 21.087Z" fill="white"/>
<path fill-rule="evenodd" clip-rule="evenodd" d="M12.752 21.199V20.671C12.752 20.507 12.8699 20.373 13.0159 20.373H13.2339C13.3819 20.373 13.4999 20.507 13.4999 20.671V21.199C13.4999 21.363 13.3819 21.499 13.2339 21.499H13.0159C12.8699 21.499 12.752 21.363 12.752 21.199ZM13.2499 21.087V20.783C13.2499 20.713 13.1979 20.655 13.1339 20.655H13.1159C13.0519 20.655 12.9999 20.713 12.9999 20.783V21.087C12.9999 21.159 13.0519 21.215 13.1159 21.215H13.1339C13.1979 21.215 13.2499 21.159 13.2499 21.087Z" fill="white"/>
<path fill-rule="evenodd" clip-rule="evenodd" d="M13.875 21.199V20.671C13.875 20.507 13.993 20.373 14.141 20.373H14.359C14.505 20.373 14.625 20.507 14.625 20.671V21.199C14.625 21.363 14.505 21.499 14.359 21.499H14.141C13.993 21.499 13.875 21.363 13.875 21.199ZM14.375 21.087V20.783C14.375 20.713 14.321 20.655 14.257 20.655H14.239C14.175 20.655 14.125 20.713 14.125 20.783V21.087C14.125 21.159 14.175 21.215 14.239 21.215H14.257C14.321 21.215 14.375 21.159 14.375 21.087Z" fill="white"/>
<path fill-rule="evenodd" clip-rule="evenodd" d="M15.002 21.199V20.671C15.002 20.507 15.1199 20.373 15.2659 20.373H15.4839C15.6319 20.373 15.7499 20.507 15.7499 20.671V21.199C15.7499 21.363 15.6319 21.499 15.4839 21.499H15.2659C15.1199 21.499 15.002 21.363 15.002 21.199ZM15.4999 21.087V20.783C15.4999 20.713 15.4499 20.655 15.3839 20.655H15.3659C15.3019 20.655 15.2499 20.713 15.2499 20.783V21.087C15.2499 21.159 15.3019 21.215 15.3659 21.215H15.3839C15.4499 21.215 15.4999 21.159 15.4999 21.087Z" fill="white"/>
<path fill-rule="evenodd" clip-rule="evenodd" d="M16.125 21.199V20.671C16.125 20.507 16.243 20.373 16.393 20.373H16.609C16.755 20.373 16.875 20.507 16.875 20.671V21.199C16.875 21.363 16.755 21.499 16.609 21.499H16.393C16.243 21.499 16.125 21.363 16.125 21.199ZM16.625 21.087V20.783C16.625 20.713 16.573 20.655 16.507 20.655H16.491C16.427 20.655 16.375 20.713 16.375 20.783V21.087C16.375 21.159 16.427 21.215 16.491 21.215H16.507C16.573 21.215 16.625 21.159 16.625 21.087Z" fill="white"/>
<path fill-rule="evenodd" clip-rule="evenodd" d="M18.375 21.199V20.671C18.375 20.507 18.495 20.373 18.641 20.373H18.859C19.005 20.373 19.125 20.507 19.125 20.671V21.199C19.125 21.363 19.005 21.499 18.859 21.499H18.641C18.495 21.499 18.375 21.363 18.375 21.199ZM18.875 21.087V20.783C18.875 20.713 18.823 20.655 18.757 20.655H18.741C18.677 20.655 18.625 20.713 18.625 20.783V21.087C18.625 21.159 18.677 21.215 18.741 21.215H18.757C18.823 21.215 18.875 21.159 18.875 21.087Z" fill="white"/>
<path fill-rule="evenodd" clip-rule="evenodd" d="M19.498 21.199V20.671C19.498 20.507 19.618 20.373 19.766 20.373H19.982C20.13 20.373 20.25 20.507 20.25 20.671V21.199C20.25 21.363 20.13 21.499 19.982 21.499H19.766C19.618 21.499 19.498 21.363 19.498 21.199ZM20 21.087V20.783C20 20.713 19.946 20.655 19.882 20.655H19.864C19.8 20.655 19.748 20.713 19.748 20.783V21.087C19.748 21.159 19.8 21.215 19.864 21.215H19.882C19.946 21.215 20 21.159 20 21.087Z" fill="white"/>
<path fill-rule="evenodd" clip-rule="evenodd" d="M20.625 21.199V20.671C20.625 20.507 20.745 20.373 20.891 20.373H21.109C21.255 20.373 21.375 20.507 21.375 20.671V21.199C21.375 21.363 21.255 21.499 21.109 21.499H20.891C20.745 21.499 20.625 21.363 20.625 21.199ZM21.125 21.087V20.783C21.125 20.713 21.073 20.655 21.009 20.655H20.991C20.927 20.655 20.875 20.713 20.875 20.783V21.087C20.875 21.159 20.927 21.215 20.991 21.215H21.009C21.073 21.215 21.125 21.159 21.125 21.087Z" fill="white"/>
<path fill-rule="evenodd" clip-rule="evenodd" d="M21.75 21.199V20.671C21.75 20.507 21.868 20.373 22.016 20.373H22.232C22.378 20.373 22.5 20.507 22.5 20.671V21.199C22.5 21.363 22.378 21.499 22.232 21.499H22.016C21.868 21.499 21.75 21.363 21.75 21.199ZM22.25 21.087V20.783C22.25 20.713 22.196 20.655 22.132 20.655H22.114C22.05 20.655 22 20.713 22 20.783V21.087C22 21.159 22.05 21.215 22.114 21.215H22.132C22.196 21.215 22.25 21.159 22.25 21.087Z" fill="white"/>
</g>
<defs>
<clipPath id="clip0_645_3537">
<rect width="24" height="24" fill="white" transform="translate(0 0.5)"/>
</clipPath>
</defs>
</svg>
