<svg width="24" height="25" viewBox="0 0 24 25" fill="none" xmlns="http://www.w3.org/2000/svg">
<path d="M22.4325 12.2L20.775 8.45C20.717 8.31701 20.6216 8.20371 20.5005 8.12384C20.3793 8.04396 20.2376 8.00095 20.0925 8H16.08L16.32 5.8325C16.3318 5.72728 16.3212 5.62075 16.2889 5.51992C16.2566 5.41909 16.2033 5.32625 16.1325 5.2475C16.0624 5.16981 15.9768 5.10765 15.8812 5.06502C15.7856 5.0224 15.6822 5.00025 15.5775 5H5.25C5.05109 5 4.86032 5.07902 4.71967 5.21967C4.57902 5.36032 4.5 5.55109 4.5 5.75C4.5 5.94891 4.57902 6.13968 4.71967 6.28033C4.86032 6.42098 5.05109 6.5 5.25 6.5H9C9.19891 6.5 9.38968 6.57902 9.53033 6.71967C9.67098 6.86032 9.75 7.05109 9.75 7.25C9.75 7.44891 9.67098 7.63968 9.53033 7.78033C9.38968 7.92098 9.19891 8 9 8H3.75C3.55109 8 3.36032 8.07902 3.21967 8.21967C3.07902 8.36032 3 8.55109 3 8.75C3 8.94891 3.07902 9.13968 3.21967 9.28033C3.36032 9.42098 3.55109 9.5 3.75 9.5H11.25C11.4489 9.5 11.6397 9.57902 11.7803 9.71967C11.921 9.86032 12 10.0511 12 10.25C12 10.4489 11.921 10.6397 11.7803 10.7803C11.6397 10.921 11.4489 11 11.25 11H6C5.80109 11 5.61032 11.079 5.46967 11.2197C5.32902 11.3603 5.25 11.5511 5.25 11.75C5.25 11.9489 5.32902 12.1397 5.46967 12.2803C5.61032 12.421 5.80109 12.5 6 12.5H9C9.19891 12.5 9.38968 12.579 9.53033 12.7197C9.67098 12.8603 9.75 13.0511 9.75 13.25C9.75 13.4489 9.67098 13.6397 9.53033 13.7803C9.38968 13.921 9.19891 14 9 14H3C2.80109 14 2.61032 14.079 2.46967 14.2197C2.32902 14.3603 2.25 14.5511 2.25 14.75C2.25 14.9489 2.32902 15.1397 2.46967 15.2803C2.61032 15.421 2.80109 15.5 3 15.5H4.5C4.69891 15.5 4.88968 15.579 5.03033 15.7197C5.17098 15.8603 5.25 16.0511 5.25 16.25C5.25 16.4489 5.17098 16.6397 5.03033 16.7803C4.88968 16.921 4.69891 17 4.5 17H3.75C3.55109 17 3.36032 17.079 3.21967 17.2197C3.07902 17.3603 3 17.5511 3 17.75C3 17.9489 3.07902 18.1397 3.21967 18.2803C3.36032 18.421 3.55109 18.5 3.75 18.5H5.8875C5.96849 18.8163 6.12262 19.1092 6.3375 19.355C6.51959 19.5586 6.74271 19.7213 6.99219 19.8325C7.24168 19.9436 7.51187 20.0007 7.785 20C8.24719 19.9868 8.69518 19.8374 9.07278 19.5705C9.45038 19.3037 9.74076 18.9313 9.9075 18.5H15.6375C15.7185 18.8163 15.8726 19.1092 16.0875 19.355C16.2696 19.5586 16.4927 19.7213 16.7422 19.8325C16.9917 19.9436 17.2619 20.0007 17.535 20C17.9972 19.9868 18.4452 19.8374 18.8228 19.5705C19.2004 19.3037 19.4908 18.9313 19.6575 18.5H21.1575C21.3429 18.5011 21.5222 18.4335 21.6607 18.3103C21.7992 18.187 21.8871 18.0168 21.9075 17.8325L22.485 12.5825C22.5056 12.4526 22.4873 12.3195 22.4325 12.2ZM7.785 18.5C7.72281 18.5027 7.66081 18.4913 7.60366 18.4666C7.54651 18.4419 7.49569 18.4046 7.455 18.3575C7.39613 18.2847 7.35305 18.2004 7.32852 18.11C7.30399 18.0196 7.29853 17.9251 7.3125 17.8325C7.33166 17.6219 7.42257 17.4243 7.57003 17.2728C7.71748 17.1212 7.91252 17.0249 8.1225 17C8.18469 16.9973 8.24669 17.0087 8.30384 17.0334C8.36099 17.0581 8.41181 17.0954 8.4525 17.1425C8.51137 17.2153 8.55445 17.2996 8.57898 17.39C8.60351 17.4804 8.60897 17.5749 8.595 17.6675C8.57584 17.8781 8.48493 18.0757 8.33747 18.2272C8.19002 18.3788 7.99498 18.4751 7.785 18.5ZM17.535 18.5C17.4728 18.5027 17.4108 18.4913 17.3537 18.4666C17.2965 18.4419 17.2457 18.4046 17.205 18.3575C17.1461 18.2847 17.1031 18.2004 17.0785 18.11C17.054 18.0196 17.0485 17.9251 17.0625 17.8325C17.0817 17.6219 17.1726 17.4243 17.32 17.2728C17.4675 17.1212 17.6625 17.0249 17.8725 17C17.9347 16.9973 17.9967 17.0087 18.0538 17.0334C18.111 17.0581 18.1618 17.0954 18.2025 17.1425C18.2614 17.2153 18.3044 17.2996 18.329 17.39C18.3535 17.4804 18.359 17.5749 18.345 17.6675C18.3258 17.8781 18.2349 18.0757 18.0875 18.2272C17.94 18.3788 17.745 18.4751 17.535 18.5ZM20.91 13.25H17.595C17.4903 13.2498 17.3869 13.2276 17.2913 13.185C17.1957 13.1424 17.1101 13.0802 17.04 13.0025C16.9692 12.9238 16.9159 12.8309 16.8836 12.7301C16.8513 12.6293 16.8407 12.5227 16.8525 12.4175L17.1 10.1675C17.1221 9.98457 17.2108 9.81618 17.3491 9.69445C17.4874 9.57272 17.6657 9.50617 17.85 9.5075H19.5975L21 12.62L20.91 13.25Z" fill="#FFB60E"/>
<path d="M2.5 12.5C2.69891 12.5 2.88968 12.421 3.03033 12.2803C3.17098 12.1397 3.25 11.9489 3.25 11.75C3.25 11.5511 3.17098 11.3603 3.03033 11.2197C2.88968 11.079 2.69891 11 2.5 11H1.75C1.55109 11 1.36032 11.079 1.21967 11.2197C1.07902 11.3603 1 11.5511 1 11.75C1 11.9489 1.07902 12.1397 1.21967 12.2803C1.36032 12.421 1.55109 12.5 1.75 12.5H2.5Z" fill="#FFB60E"/>
<path d="M2.5 7C2.69891 7 2.88968 6.92098 3.03033 6.78033C3.17098 6.63968 3.25 6.44891 3.25 6.25C3.25 6.05109 3.17098 5.86032 3.03033 5.71967C2.88968 5.57902 2.69891 5.5 2.5 5.5H1.75C1.55109 5.5 1.36032 5.57902 1.21967 5.71967C1.07902 5.86032 1 6.05109 1 6.25C1 6.44891 1.07902 6.63968 1.21967 6.78033C1.36032 6.92098 1.55109 7 1.75 7H2.5Z" fill="#FFB60E"/>
<path d="M1.5 17C1.69891 17 1.88968 16.921 2.03033 16.7803C2.17098 16.6397 2.25 16.4489 2.25 16.25C2.25 16.0511 2.17098 15.8603 2.03033 15.7197C1.88968 15.579 1.69891 15.5 1.5 15.5H0.75C0.551088 15.5 0.360322 15.579 0.21967 15.7197C0.0790176 15.8603 0 16.0511 0 16.25C0 16.4489 0.0790176 16.6397 0.21967 16.7803C0.360322 16.921 0.551088 17 0.75 17H1.5Z" fill="#FFB60E"/>
</svg>
