<svg width="16" height="17" viewBox="0 0 16 17" fill="none" xmlns="http://www.w3.org/2000/svg">
<path fill-rule="evenodd" clip-rule="evenodd" d="M10.7893 12.4955H5.21069C4.76532 12.4955 4.40272 12.1282 4.40272 11.677V8.34369H11.5973V11.677C11.5973 12.1282 11.2347 12.4955 10.7893 12.4955ZM10.6813 3.78539C10.6757 3.39741 10.3657 3.08334 9.98205 3.08334C9.5977 3.08334 9.287 3.39741 9.28209 3.78539H6.71791C6.713 3.39741 6.4023 3.08334 6.01795 3.08334C5.63431 3.08334 5.32431 3.39741 5.3187 3.78539H5.21069C3.99172 3.78539 3 4.79013 3 6.0251V11.677C3 12.9119 3.99172 13.9167 5.21069 13.9167H10.7893C12.0083 13.9167 13 12.9119 13 11.677V6.0251C13 4.79013 12.0083 3.78539 10.7893 3.78539H10.6813Z" fill="#99A2B3"/>
<mask id="mask0_645_3428" style="mask-type:luminance" maskUnits="userSpaceOnUse" x="3" y="3" width="10" height="11">
<path fill-rule="evenodd" clip-rule="evenodd" d="M10.7893 12.4955H5.21069C4.76532 12.4955 4.40272 12.1282 4.40272 11.677V8.34369H11.5973V11.677C11.5973 12.1282 11.2347 12.4955 10.7893 12.4955ZM10.6813 3.78539C10.6757 3.39741 10.3657 3.08334 9.98205 3.08334C9.5977 3.08334 9.287 3.39741 9.28209 3.78539H6.71791C6.713 3.39741 6.4023 3.08334 6.01795 3.08334C5.63431 3.08334 5.32431 3.39741 5.3187 3.78539H5.21069C3.99172 3.78539 3 4.79013 3 6.0251V11.677C3 12.9119 3.99172 13.9167 5.21069 13.9167H10.7893C12.0083 13.9167 13 12.9119 13 11.677V6.0251C13 4.79013 12.0083 3.78539 10.7893 3.78539H10.6813Z" fill="white"/>
</mask>
<g mask="url(#mask0_645_3428)">
<rect x="-40" y="-39.5" width="96" height="96" fill="#99A2B3"/>
</g>
</svg>
