<svg width="18" height="18" viewBox="0 0 18 18" fill="none" xmlns="http://www.w3.org/2000/svg">
<g clip-path="url(#clip0_662_348)">
<path d="M17.328 4.27397L9.90998 6.38334C9.68337 6.44824 9.52734 6.65528 9.52734 6.89061C9.52734 9.50873 9.52734 11.4144 9.52734 14.0746C9.21586 13.8929 8.85857 13.7812 8.47266 13.7812C7.3093 13.7812 6.36328 14.7273 6.36328 15.8906C6.36328 17.054 7.3093 18 8.47266 18C9.63601 18 10.582 17.054 10.582 15.8906V10.4526L16.9453 8.64459V11.9652C16.6338 11.7836 16.2765 11.6719 15.8906 11.6719C14.7273 11.6719 13.7812 12.6179 13.7812 13.7812C13.7812 14.9446 14.7273 15.8906 15.8906 15.8906C17.054 15.8906 18 14.9446 18 13.7812C18 10.4295 18 8.12523 18 4.78124C18 4.43245 17.6664 4.17838 17.328 4.27397Z" fill="#FC1055"/>
<path d="M6.10323 3.2574C5.07016 2.62346 4.21875 2.08723 4.21875 0.527344C4.21875 0.235863 3.98289 0 3.69141 0C3.39993 0 3.16406 0.235863 3.16406 0.527344C3.16406 3.80211 3.16406 1.63811 3.16406 9.82069C2.85258 9.63904 2.49529 9.52734 2.10938 9.52734C0.94602 9.52734 0 10.4734 0 11.6367C0 12.8001 0.94602 13.7461 2.10938 13.7461C3.27273 13.7461 4.21875 12.8001 4.21875 11.6367C4.21875 9.81907 4.21875 8.61659 4.21875 6.60417C4.56377 6.88054 4.98853 7.10789 5.36059 7.32375C6.46474 7.96384 7.41797 8.51695 7.41797 10.0547C7.41797 10.3462 7.65383 10.582 7.94531 10.582C8.23679 10.582 8.47266 10.3462 8.47266 10.0547V6.89062C8.47266 4.71069 7.21403 3.93873 6.10323 3.2574Z" fill="#FC1055" fill-opacity="0.5"/>
</g>
<defs>
<clipPath id="clip0_662_348">
<rect width="18" height="18" fill="white"/>
</clipPath>
</defs>
</svg>
