<svg width="36" height="37" viewBox="0 0 36 37" fill="none" xmlns="http://www.w3.org/2000/svg">
<path opacity="0.638811" fill-rule="evenodd" clip-rule="evenodd" d="M18 36.973C27.9411 36.973 36 28.9141 36 18.973C36 9.03185 27.9411 0.972977 18 0.972977C8.05887 0.972977 0 9.03185 0 18.973C0 28.9141 8.05887 36.973 18 36.973Z" fill="#FFD6E2"/>
<path fill-rule="evenodd" clip-rule="evenodd" d="M18.4768 20.1722L17.2935 19.3295C16.8033 18.9813 16.6932 18.3066 17.0453 17.823C17.3974 17.3382 18.0795 17.2282 18.5685 17.5776L19.7518 18.4203C20.242 18.7685 20.3532 19.4431 19.9999 19.9267C19.6479 20.4103 18.9658 20.5204 18.4768 20.1722ZM22.941 20.6901L23.5327 21.1121L26.8174 16.5999C27.1303 16.1695 27.0325 15.5686 26.5961 15.2591L25.2196 14.2774C24.8969 14.0489 24.4507 14.0066 24.1292 14.2363C23.4813 14.6993 22.5816 14.7247 21.8983 14.2375C21.2149 13.7503 20.9533 12.8979 21.1917 12.1447C21.3103 11.7699 21.1281 11.3648 20.8066 11.1351L19.429 10.1546C18.9938 9.84387 18.3862 9.94181 18.072 10.3722L14.7886 14.8843L15.3802 15.3063C15.8692 15.6545 15.9805 16.3291 15.6284 16.8127C15.2763 17.2963 14.5942 17.4064 14.104 17.0582L13.5124 16.6362L10.0834 21.3454C9.77047 21.777 9.86827 22.3767 10.3047 22.6874L11.6811 23.6679C12.0039 23.8977 12.4501 23.94 12.7716 23.7103C13.4194 23.2472 14.3192 23.2218 15.0025 23.7091C15.6858 24.1963 15.9475 25.0475 15.7091 25.8019C15.5905 26.1755 15.7726 26.5817 16.0941 26.8114L17.4718 27.792C17.907 28.1015 18.5146 28.0047 18.8287 27.5731L22.2564 22.8639L21.6648 22.442C21.1758 22.0938 21.0646 21.4191 21.4166 20.9355C21.7687 20.4519 22.4508 20.3419 22.941 20.6901Z" fill="#EF4870"/>
</svg>
