<svg width="11" height="11" viewBox="0 0 11 11" fill="none" xmlns="http://www.w3.org/2000/svg">
<path d="M3.61821 3.42057L0.428209 3.88307L0.371709 3.89457C0.286179 3.91728 0.208207 3.96228 0.145755 4.02497C0.0833039 4.08767 0.0386109 4.16582 0.0162402 4.25143C-0.00613046 4.33705 -0.00537724 4.42708 0.0184229 4.51231C0.0422231 4.59754 0.0882174 4.67493 0.151709 4.73657L2.46271 6.98607L1.91771 10.1636L1.91121 10.2186C1.90597 10.307 1.92434 10.3953 1.96443 10.4743C2.00453 10.5534 2.0649 10.6203 2.13938 10.6683C2.21385 10.7164 2.29975 10.7437 2.38828 10.7476C2.47681 10.7515 2.56479 10.7318 2.64321 10.6906L5.49621 9.19057L8.34271 10.6906L8.39271 10.7136C8.47524 10.7461 8.56493 10.756 8.65259 10.7425C8.74024 10.7289 8.8227 10.6922 8.89151 10.6362C8.96031 10.5802 9.01299 10.5069 9.04413 10.4239C9.07527 10.3408 9.08375 10.251 9.06871 10.1636L8.52321 6.98607L10.8352 4.73607L10.8742 4.69357C10.9299 4.62496 10.9664 4.5428 10.9801 4.45547C10.9937 4.36814 10.9839 4.27876 10.9518 4.19644C10.9196 4.11411 10.8662 4.04179 10.797 3.98683C10.7277 3.93187 10.6452 3.89624 10.5577 3.88357L7.36771 3.42057L5.94171 0.530572C5.90045 0.446839 5.83657 0.376329 5.7573 0.327024C5.67804 0.277719 5.58656 0.251587 5.49321 0.251587C5.39986 0.251587 5.30838 0.277719 5.22911 0.327024C5.14985 0.376329 5.08597 0.446839 5.04471 0.530572L3.61821 3.42057Z" fill="#FBBC69"/>
</svg>
