<svg width="18" height="18" viewBox="0 0 18 18" fill="none" xmlns="http://www.w3.org/2000/svg">
<path d="M15.7367 8.57694C15.6562 7.29391 15.2109 6.06055 14.4533 5.02195C13.6957 3.98335 12.6573 3.18269 11.4601 2.71416C10.263 2.24562 8.95693 2.12869 7.6956 2.37711C6.43427 2.62554 5.27012 3.22899 4.34006 4.1165C3.41 5.004 2.75272 6.13864 2.44554 7.38696C2.13835 8.63528 2.19403 9.94536 2.60603 11.1631C3.01802 12.3809 3.7692 13.4557 4.77121 14.261C5.77322 15.0664 6.98438 15.5689 8.26224 15.7094M9.00023 5.24995V8.99995L9.75023 9.74995M13.3502 15.6127L11.7212 16.4662C11.6729 16.4914 11.6185 16.5026 11.5642 16.4986C11.5098 16.4947 11.4576 16.4757 11.4134 16.4438C11.3692 16.4119 11.3348 16.3683 11.3139 16.318C11.293 16.2677 11.2866 16.2125 11.2952 16.1587L11.6065 14.3505L10.2887 13.0702C10.2494 13.0322 10.2216 12.9839 10.2084 12.9308C10.1952 12.8777 10.1972 12.8219 10.2142 12.7699C10.2311 12.7179 10.2624 12.6717 10.3043 12.6366C10.3463 12.6015 10.3973 12.579 10.4515 12.5715L12.2725 12.3075L13.087 10.6627C13.1113 10.6137 13.1489 10.5725 13.1954 10.5437C13.2419 10.5149 13.2955 10.4996 13.3502 10.4996C13.4049 10.4996 13.4586 10.5149 13.5051 10.5437C13.5516 10.5725 13.5891 10.6137 13.6135 10.6627L14.428 12.3075L16.249 12.5715C16.303 12.5792 16.3538 12.602 16.3956 12.6371C16.4374 12.6722 16.4685 12.7183 16.4854 12.7702C16.5023 12.8221 16.5044 12.8777 16.4914 12.9307C16.4784 12.9837 16.4508 13.0321 16.4117 13.0702L15.094 14.3505L15.4045 16.158C15.4138 16.2119 15.4078 16.2673 15.3872 16.318C15.3666 16.3686 15.3322 16.4125 15.2879 16.4446C15.2436 16.4767 15.1912 16.4958 15.1367 16.4996C15.0821 16.5034 15.0276 16.4918 14.9792 16.4662L13.3502 15.6127Z" stroke="#FC1055" stroke-width="1.5" stroke-linecap="round" stroke-linejoin="round"/>
</svg>
