<svg width="16" height="17" viewBox="0 0 16 17" fill="none" xmlns="http://www.w3.org/2000/svg">
<path fill-rule="evenodd" clip-rule="evenodd" d="M8.01757 9.30047L7.23586 8.73761C6.91204 8.50504 6.83936 8.05443 7.07193 7.73141C7.3045 7.40758 7.75511 7.3341 8.07813 7.56748L8.85984 8.13034C9.18366 8.36291 9.25715 8.81352 9.02377 9.13654C8.79119 9.45956 8.34058 9.53304 8.01757 9.30047ZM10.9667 9.64691L11.3576 9.92874L13.5274 6.91498C13.7342 6.62749 13.6696 6.22614 13.3813 6.01941L12.472 5.36369C12.2588 5.21106 11.964 5.1828 11.7517 5.33623C11.3237 5.64552 10.7293 5.66248 10.2779 5.33704C9.82647 5.0116 9.65365 4.44228 9.81112 3.93918C9.88946 3.68884 9.76913 3.41831 9.55675 3.26487L8.64664 2.60996C8.35916 2.40242 7.95781 2.46783 7.75027 2.75531L5.5812 5.76907L5.97205 6.05091C6.29507 6.28348 6.36856 6.73409 6.13598 7.05711C5.90341 7.38013 5.4528 7.45361 5.12898 7.22104L4.73812 6.93921L2.47296 10.0846C2.26623 10.3729 2.33083 10.7734 2.61912 10.981L3.52842 11.6359C3.74161 11.7893 4.03637 11.8176 4.24875 11.6642C4.67675 11.3549 5.2711 11.3379 5.72252 11.6633C6.17394 11.9888 6.34675 12.5573 6.18928 13.0612C6.11095 13.3107 6.23128 13.5821 6.44366 13.7355L7.35376 14.3904C7.64125 14.5972 8.0426 14.5326 8.25014 14.2443L10.5145 11.0989L10.1236 10.817C9.80063 10.5845 9.72714 10.1339 9.95971 9.81084C10.1923 9.48782 10.6429 9.41433 10.9667 9.64691Z" fill="#99A2B3"/>
<mask id="mask0_645_3432" style="mask-type:luminance" maskUnits="userSpaceOnUse" x="2" y="2" width="12" height="13">
<path fill-rule="evenodd" clip-rule="evenodd" d="M8.01757 9.30047L7.23586 8.73761C6.91204 8.50504 6.83936 8.05443 7.07193 7.73141C7.3045 7.40758 7.75511 7.3341 8.07813 7.56748L8.85984 8.13034C9.18366 8.36291 9.25715 8.81352 9.02377 9.13654C8.79119 9.45956 8.34058 9.53304 8.01757 9.30047ZM10.9667 9.64691L11.3576 9.92874L13.5274 6.91498C13.7342 6.62749 13.6696 6.22614 13.3813 6.01941L12.472 5.36369C12.2588 5.21106 11.964 5.1828 11.7517 5.33623C11.3237 5.64552 10.7293 5.66248 10.2779 5.33704C9.82647 5.0116 9.65365 4.44228 9.81112 3.93918C9.88946 3.68884 9.76913 3.41831 9.55675 3.26487L8.64664 2.60996C8.35916 2.40242 7.95781 2.46783 7.75027 2.75531L5.5812 5.76907L5.97205 6.05091C6.29507 6.28348 6.36856 6.73409 6.13598 7.05711C5.90341 7.38013 5.4528 7.45361 5.12898 7.22104L4.73812 6.93921L2.47296 10.0846C2.26623 10.3729 2.33083 10.7734 2.61912 10.981L3.52842 11.6359C3.74161 11.7893 4.03637 11.8176 4.24875 11.6642C4.67675 11.3549 5.2711 11.3379 5.72252 11.6633C6.17394 11.9888 6.34675 12.5573 6.18928 13.0612C6.11095 13.3107 6.23128 13.5821 6.44366 13.7355L7.35376 14.3904C7.64125 14.5972 8.0426 14.5326 8.25014 14.2443L10.5145 11.0989L10.1236 10.817C9.80063 10.5845 9.72714 10.1339 9.95971 9.81084C10.1923 9.48782 10.6429 9.41433 10.9667 9.64691Z" fill="white"/>
</mask>
<g mask="url(#mask0_645_3432)">
<rect x="-40" y="-39.5" width="96" height="96" fill="#99A2B3"/>
</g>
</svg>
