<svg width="17" height="17" viewBox="0 0 17 17" fill="none" xmlns="http://www.w3.org/2000/svg">
<path d="M6.00016 2.66667H3.66683C2.73341 2.66667 2.26635 2.66667 1.90983 2.84832C1.59623 3.00811 1.34144 3.26289 1.18166 3.5765C1 3.93302 1 4.40008 1 5.3335V13.3335C1 14.2669 1 14.7334 1.18166 15.0899C1.34144 15.4035 1.59623 15.6587 1.90983 15.8185C2.266 16 2.73249 16 3.66409 16H11.6692C12.6008 16 13.0667 16 13.4228 15.8185C13.7364 15.6587 13.9921 15.4033 14.1519 15.0897C14.3333 14.7335 14.3333 14.2675 14.3333 13.3359V11M11 3.5L6 8.5V11H8.5L13.5 6M11 3.5L13.5 1L16 3.5L13.5 6M11 3.5L13.5 6" stroke="#667185" stroke-width="1.5" stroke-linecap="round" stroke-linejoin="round"/>
</svg>
