<svg width="40" height="41" viewBox="0 0 40 41" fill="none" xmlns="http://www.w3.org/2000/svg">
<rect width="40" height="41" rx="12" fill="url(#paint0_linear_662_344)"/>
<path fill-rule="evenodd" clip-rule="evenodd" d="M16.2288 8C14.8749 8 13.5766 8.5378 12.6193 9.4951L8 14.1144V16.2288C8 17.7226 8.64166 19.0665 9.66441 20C8.64166 20.9335 8 22.2774 8 23.7712V25.8856L12.6193 30.5049C13.5766 31.4622 14.8749 32 16.2288 32C17.7226 32 19.0665 31.3584 20 30.3356C20.9335 31.3584 22.2774 32 23.7712 32C25.1251 32 26.4234 31.4622 27.3807 30.5049L32 25.8856V23.7712C32 22.2774 31.3584 20.9335 30.3356 20C31.3584 19.0665 32 17.7226 32 16.2288V14.1144L27.3807 9.4951C26.4234 8.5378 25.1251 8 23.7712 8C22.2774 8 20.9335 8.64166 20 9.6644C19.0665 8.64166 17.7226 8 16.2288 8ZM23.4553 20C23.3977 19.9475 23.3413 19.8936 23.286 19.8382L20 16.5523L16.714 19.8382C16.6587 19.8936 16.6023 19.9475 16.5447 20C16.6023 20.0525 16.6587 20.1064 16.714 20.1618L20 23.4477L23.286 20.1618C23.3413 20.1064 23.3977 20.0525 23.4553 20ZM21.3333 25.8856V26.8954C21.3333 28.2418 22.4248 29.3334 23.7712 29.3334C24.4178 29.3334 25.0379 29.0765 25.4951 28.6193L29.3334 24.781V23.7712C29.3334 22.4248 28.2418 21.3333 26.8954 21.3333C26.2489 21.3333 25.6288 21.5902 25.1716 22.0474L21.3333 25.8856ZM18.6667 25.8856L14.8284 22.0474C14.3712 21.5902 13.7511 21.3333 13.1046 21.3333C11.7582 21.3333 10.6667 22.4248 10.6667 23.7712V24.781L14.5049 28.6193C14.9621 29.0765 15.5822 29.3334 16.2288 29.3334C17.5752 29.3334 18.6667 28.2418 18.6667 26.8954V25.8856ZM18.6667 13.1046V14.1144L14.8284 17.9526C14.3712 18.4098 13.7511 18.6667 13.1046 18.6667C11.7582 18.6667 10.6667 17.5752 10.6667 16.2288V15.219L14.5049 11.3807C14.9621 10.9235 15.5822 10.6667 16.2288 10.6667C17.5752 10.6667 18.6667 11.7582 18.6667 13.1046ZM25.1716 17.9526L21.3333 14.1144V13.1046C21.3333 11.7582 22.4248 10.6667 23.7712 10.6667C24.4178 10.6667 25.0379 10.9235 25.4951 11.3807L29.3334 15.219V16.2288C29.3334 17.5752 28.2418 18.6667 26.8954 18.6667C26.2489 18.6667 25.6288 18.4098 25.1716 17.9526Z" fill="white"/>
<defs>
<linearGradient id="paint0_linear_662_344" x1="2.6077e-06" y1="41" x2="40" y2="3.23755e-06" gradientUnits="userSpaceOnUse">
<stop stop-color="#FF630B"/>
<stop offset="1" stop-color="#FFBB0B"/>
</linearGradient>
</defs>
</svg>
