<svg width="101" height="34" viewBox="0 0 101 34" fill="none" xmlns="http://www.w3.org/2000/svg">
<path fill-rule="evenodd" clip-rule="evenodd" d="M78.875 0C80.0486 0 81 0.951395 81 2.125C81 2.67728 81.4477 3.125 82 3.125C82.5523 3.125 83 2.67728 83 2.125C83 0.951395 83.9514 0 85.125 0H97.4459C99.4089 0 101 1.59111 101 3.55413C101 4.87045 100.158 6.01384 99.0314 6.69467C95.6277 8.7517 93.3517 12.4886 93.3517 16.7552C93.3517 21.0192 95.6249 24.7519 99.0253 26.807C100.155 27.4898 101 28.6362 101 29.9562C101 31.916 99.4089 33.5071 97.4459 33.5071H84.6321C83.7307 33.5071 83 32.7764 83 31.875C83 31.3227 82.5523 30.875 82 30.875C81.4477 30.875 81 31.3227 81 31.875C81 32.7764 80.2693 33.5071 79.3679 33.5071H3.55089C1.58788 33.5071 0 31.916 0 29.9562V3.55413C0 1.59111 1.58788 0 3.55089 0H78.875ZM82 5.375C82.5523 5.375 83 5.82272 83 6.375V10.625C83 11.1773 82.5523 11.625 82 11.625C81.4477 11.625 81 11.1773 81 10.625V6.375C81 5.82272 81.4477 5.375 82 5.375ZM82 13.875C82.5523 13.875 83 14.3227 83 14.875V19.125C83 19.6773 82.5523 20.125 82 20.125C81.4477 20.125 81 19.6773 81 19.125V14.875C81 14.3227 81.4477 13.875 82 13.875ZM82 22.375C82.5523 22.375 83 22.8227 83 23.375V27.625C83 28.1773 82.5523 28.625 82 28.625C81.4477 28.625 81 28.1773 81 27.625V23.375C81 22.8227 81.4477 22.375 82 22.375ZM29.1622 20.8228C29.0794 20.9332 28.9552 20.9884 28.7897 20.9884C28.6379 20.9884 28.5206 20.9539 28.4378 20.8849C28.355 20.8021 28.2929 20.6986 28.2515 20.5744C28.2101 20.4364 28.1894 20.2709 28.1894 20.0777V13.558C28.1894 13.2683 28.2308 13.0475 28.3136 12.8957C28.4102 12.7301 28.5689 12.6473 28.7897 12.6473C28.9552 12.6473 29.0794 12.7025 29.1622 12.8129C29.245 12.9233 29.3002 13.1303 29.3278 13.4338C29.3692 13.7374 29.3899 14.1927 29.3899 14.7999H33.4259C33.4259 13.1441 33.074 11.8263 32.3703 10.8467C31.6666 9.85318 30.48 9.35645 28.8104 9.35645C27.7203 9.35645 26.8234 9.58412 26.1197 10.0395C25.4298 10.481 24.9262 11.0398 24.6088 11.7159C24.3052 12.3783 24.1535 13.0613 24.1535 13.765V19.8707C24.1535 20.5744 24.3052 21.2643 24.6088 21.9405C24.9262 22.6028 25.4298 23.1616 26.1197 23.6169C26.8234 24.0585 27.7203 24.2793 28.8104 24.2793C30.4938 24.2793 31.6804 23.7756 32.3703 22.7684C33.074 21.7611 33.4259 20.3813 33.4259 18.6289H29.3899C29.3899 19.305 29.3692 19.8086 29.3278 20.1398C29.3002 20.4709 29.245 20.6986 29.1622 20.8228ZM16.3541 12.399V24.093H12.3181V12.399H10V9.60481H18.6515V12.399H16.3541ZM23.3183 9.60481V24.093H19.2823V9.60481H23.3183ZM38.1945 24.093V18.8862L41.444 24.093H46.0388L40.2716 16.3555L45.8319 9.60481H41.444L38.1945 14.6459V9.60481H34.1585V24.093H38.1945ZM50.2815 24.093V9.60481H46.2455V24.093H50.2815ZM57.2638 12.399V24.093H53.2278V12.399H50.9097V9.60481H63.2702L64.8934 14.4405L66.9336 9.60481H71.0524L67.2234 18.4426V24.093H63.1874V18.484L59.5612 10.075V12.399H57.2638Z" fill="white"/>
</svg>
