<svg width="117" height="18" viewBox="0 0 117 18" fill="none" xmlns="http://www.w3.org/2000/svg">
<g clip-path="url(#clip0_24_2351)">
<path d="M24.5944 12.6848C25.0301 14.2635 26.2093 15.0528 28.1352 15.0528C29.3729 15.0528 30.3105 14.6326 30.9478 13.7939L33.5587 15.3046C32.3195 17.1026 30.4952 18 28.0859 18C26.0107 18 24.3451 17.3698 23.0904 16.1109C21.8357 14.852 21.2076 13.2641 21.2076 11.3502C21.2076 9.43639 21.8265 7.8701 23.0658 6.60192C24.3035 5.33375 25.8937 4.70044 27.835 4.70044C29.6762 4.70044 31.1957 5.33839 32.3918 6.61428C33.588 7.89018 34.1868 9.46883 34.1868 11.3502C34.1868 11.7704 34.1453 12.2152 34.0606 12.6848H24.596H24.5944ZM24.5452 10.1655H30.9478C30.7631 9.30972 30.3828 8.67178 29.8055 8.25163C29.2282 7.83148 28.5709 7.6214 27.835 7.6214C26.9652 7.6214 26.2447 7.84384 25.6751 8.2887C25.1055 8.73356 24.7299 9.35915 24.5452 10.1655Z" fill="white"/>
<path d="M42.3198 18C40.4278 18 38.8514 17.3621 37.5875 16.0862C36.3236 14.8103 35.6924 13.2316 35.6924 11.3502C35.6924 9.46883 36.3236 7.89018 37.5875 6.61428C38.8514 5.33839 40.4293 4.70044 42.3198 4.70044C43.5406 4.70044 44.6552 4.99393 45.6589 5.58244C46.6626 6.17096 47.4247 6.96029 47.9435 7.95042L45.157 9.58776C44.9061 9.06721 44.5243 8.65633 44.0148 8.35358C43.5036 8.05082 42.931 7.89944 42.2952 7.89944C41.3253 7.89944 40.5217 8.22382 39.8844 8.86949C39.2486 9.51671 38.9299 10.3431 38.9299 11.3502C38.9299 12.3574 39.247 13.1606 39.8844 13.8062C40.5202 14.4535 41.3238 14.7763 42.2952 14.7763C42.9479 14.7763 43.5298 14.6296 44.0394 14.3361C44.5505 14.0426 44.9307 13.6348 45.1817 13.1142L47.9943 14.7269C47.4416 15.7185 46.6642 16.511 45.6589 17.1072C44.6552 17.7034 43.5406 18.0016 42.3198 18.0016V18Z" fill="white"/>
<path d="M56.6814 4.69889C58.0531 4.69889 59.1877 5.16075 60.0837 6.08446C60.9781 7.00817 61.4261 8.28406 61.4261 9.91369V17.9274H58.187V10.3168C58.187 9.47809 57.9607 8.83551 57.5097 8.39064C57.0586 7.94578 56.4551 7.72335 55.7023 7.72335C54.8649 7.72335 54.1952 7.9844 53.6933 8.50495C53.1915 9.0255 52.9406 9.8071 52.9406 10.8482V17.929H49.7015V0.013916H52.9406V6.4629C53.7272 5.28741 54.9742 4.69889 56.6814 4.69889Z" fill="white"/>
<path d="M73.7279 5.05112H76.9669V17.9259H73.7279V16.1604C72.7565 17.3868 71.3925 17.9985 69.636 17.9985C67.8795 17.9985 66.5263 17.3559 65.3301 16.0723C64.134 14.7871 63.5351 13.2131 63.5351 11.3487C63.5351 9.48431 64.134 7.91029 65.3301 6.62513C66.5263 5.33997 67.9626 4.69739 69.636 4.69739C71.3925 4.69739 72.7565 5.31062 73.7279 6.53554V5.04957V5.05112ZM67.7532 13.9067C68.406 14.5709 69.2342 14.9015 70.2379 14.9015C71.2417 14.9015 72.0745 14.5709 72.7365 13.9067C73.3969 13.244 73.7279 12.3914 73.7279 11.3503C73.7279 10.3092 73.3969 9.45651 72.7365 8.79384C72.0745 8.13118 71.2432 7.79908 70.2379 7.79908C69.2327 7.79908 68.4044 8.13118 67.7532 8.79384C67.1005 9.45805 66.7741 10.3092 66.7741 11.3503C66.7741 12.3914 67.1005 13.244 67.7532 13.9067Z" fill="white"/>
<path d="M83.1417 7.21818C83.4435 6.41187 83.9407 5.8079 84.635 5.40475C85.3293 5.00159 86.1036 4.80078 86.9565 4.80078V8.42766C85.9682 8.31026 85.0861 8.51261 84.3086 9.03162C83.5297 9.55218 83.1417 10.4172 83.1417 11.6267V17.9258H79.9027V5.05102H83.1417V7.21818Z" fill="white"/>
<path d="M99.0597 16.0723C97.7712 17.3575 96.1979 17.9985 94.3397 17.9985C92.4816 17.9985 90.9129 17.3559 89.6321 16.0723C88.3512 14.7871 87.7108 13.2131 87.7108 11.3487C87.7108 9.48431 88.3512 7.91029 89.6321 6.62513C90.9129 5.33997 92.4816 4.69739 94.3397 4.69739C96.1979 4.69739 97.7697 5.33997 99.0597 6.62513C100.348 7.91029 100.993 9.48431 100.993 11.3487C100.993 13.2131 100.348 14.7871 99.0597 16.0723ZM91.9166 13.8434C92.5617 14.4983 93.3683 14.8258 94.3397 14.8258C95.3111 14.8258 96.1224 14.4983 96.7752 13.8434C97.4279 13.1884 97.7543 12.3574 97.7543 11.3503C97.7543 10.3431 97.4279 9.51057 96.7752 8.85563C96.1224 8.20069 95.3096 7.87322 94.3397 7.87322C93.3699 7.87322 92.5617 8.20069 91.9166 8.85563C91.2716 9.51057 90.9498 10.3416 90.9498 11.3503C90.9498 12.3589 91.2716 13.1884 91.9166 13.8434Z" fill="white"/>
<path d="M110.583 4.69889C112.273 4.69889 113.717 5.34147 114.913 6.62663C116.109 7.9118 116.708 9.48581 116.708 11.3502C116.708 13.2146 116.109 14.7887 114.913 16.0738C113.715 17.359 112.273 18 110.583 18C108.892 18 107.47 17.3868 106.515 16.1619V17.9274H103.276V0.013916H106.515V6.53859C107.47 5.31367 108.825 4.70043 110.583 4.70043V4.69889ZM107.496 13.9066C108.149 14.5709 108.977 14.9014 109.982 14.9014C110.987 14.9014 111.819 14.5709 112.481 13.9066C113.141 13.244 113.472 12.3913 113.472 11.3502C113.472 10.3091 113.141 9.45646 112.481 8.7938C111.819 8.13114 110.987 7.79904 109.982 7.79904C108.977 7.79904 108.15 8.13114 107.496 8.7938C106.843 9.45801 106.517 10.3091 106.517 11.3502C106.517 12.3913 106.843 13.244 107.496 13.9066Z" fill="white"/>
<path d="M4.59067 0H0V4.5166H4.59067V0Z" fill="white"/>
<path d="M18.1641 0.0323862V0.0292969H8.98122V4.51501H4.59375V11.483C4.59375 14.0626 5.26803 15.8529 6.632 16.8507C7.99288 17.8501 10.3313 18.1652 13.6458 17.7961V13.3922C12.7252 13.4524 11.9524 13.4571 11.3258 13.4123C10.7039 13.3829 10.2282 13.2099 9.90643 12.9072C9.58161 12.6075 9.41842 12.1318 9.41842 11.4845V8.79682L9.41381 4.64013H13.7166V9.24787H18.3088V0.0323862H18.1626H18.1641Z" fill="white"/>
</g>
<defs>
<clipPath id="clip0_24_2351">
<rect width="116.71" height="18" fill="white"/>
</clipPath>
</defs>
</svg>
